<?xml version="1.0" standalone="no"?><!DOCTYPE svg PUBLIC "-//W3C//DTD SVG 1.1//EN" "http://www.w3.org/Graphics/SVG/1.1/DTD/svg11.dtd"><svg t="1602078478881" class="icon" viewBox="0 0 1024 1024" version="1.1" xmlns="http://www.w3.org/2000/svg" p-id="1905" xmlns:xlink="http://www.w3.org/1999/xlink" width="200" height="200"><defs><style type="text/css"></style></defs><path d="M309.248 349.696h406.016c22.528 0 40.448-17.92 40.448-40.448s-17.92-40.448-40.448-40.448H309.248c-22.528 0-40.448 17.92-40.448 40.448-0.512 22.016 17.92 40.448 40.448 40.448zM309.248 512h406.016c22.528 0 40.448-17.92 40.448-40.448s-17.92-40.448-40.448-40.448H309.248c-22.528 0-40.448 17.92-40.448 40.448-0.512 22.016 17.92 40.448 40.448 40.448z" p-id="1906"></path><path d="M877.568 128.512c0-34.816-28.16-62.976-62.976-62.976H209.92c-34.816 0-62.976 28.16-62.976 62.976v766.976c0 34.816 28.16 62.976 62.976 62.976h178.176c19.968 0 38.912-13.824 41.984-33.792 4.096-25.6-15.36-47.616-39.936-47.616H256c-15.872 0-28.16-12.8-28.16-28.16V175.104c0-15.872 12.8-28.16 28.16-28.16h512c15.872 0 28.16 12.8 28.16 28.16v418.304h-243.712c-22.528 0-40.448 17.92-40.448 40.448v282.112c0 1.024 0 2.56 0.512 3.584 0 7.68 2.048 15.872 7.168 22.528 14.336 19.968 40.96 22.016 58.88 7.68 0.512-0.512 1.024-0.512 1.536-1.024l1.536-1.536 284.16-284.16c2.56-2.56 4.096-5.12 5.632-7.68 0.512-0.512 1.024-1.536 1.536-2.56 0.512-0.512 0.512-1.024 1.024-1.536 0-0.512 0.512-1.024 0.512-1.024 0-0.512 0-0.512 0.512-1.024 1.024-2.56 2.048-5.12 2.56-8.192v-1.536c0-1.536 0.512-3.072 0.512-5.12l-0.512-505.856z m-256 545.792h117.248l-145.92 145.92v-117.248c0.512-15.872 12.8-28.672 28.672-28.672z" p-id="1907"></path></svg>