<?xml version="1.0" standalone="no"?><!DOCTYPE svg PUBLIC "-//W3C//DTD SVG 1.1//EN" "http://www.w3.org/Graphics/SVG/1.1/DTD/svg11.dtd"><svg t="1602638480474" class="icon" viewBox="0 0 1024 1024" version="1.1" xmlns="http://www.w3.org/2000/svg" p-id="1771" xmlns:xlink="http://www.w3.org/1999/xlink" width="200" height="200"><defs><style type="text/css"></style></defs><path d="M564.337778 122.709333a49.152 49.152 0 0 0-34.474667 14.677334 48.469333 48.469333 0 0 0-13.880889 34.645333v30.663111a48.469333 48.469333 0 0 0 13.880889 34.588445c9.102222 9.272889 21.504 14.563556 34.474667 14.791111 26.737778 0 48.355556-22.186667 48.355555-49.379556v-30.663111a48.469333 48.469333 0 0 0-13.880889-34.645333 49.152 49.152 0 0 0-34.474666-14.677334zM995.555556 277.447111c0-2.048-0.910222-3.868444-1.137778-5.859555a48.753778 48.753778 0 0 0-13.767111-40.96L763.164444 14.791111a49.948444 49.948444 0 0 0-36.352-14.449778c-0.512 0-0.910222-0.284444-1.365333-0.284444h-38.513778L686.648889 0l-0.455111 0.056889H337.749333L337.521778 0H78.108444L77.482667 0.113778 76.8 0a47.047111 47.047111 0 0 0-30.72 12.060444C45.226667 12.913778 43.804444 13.368889 42.951111 14.336 41.756444 15.36 41.301333 16.839111 40.391111 17.976889A45.681778 45.681778 0 0 0 28.444444 48.014222l0.113778 0.625778L28.444444 49.322667v925.354666l0.113778 0.796445-0.113778 0.568889c0 12.060444 4.949333 22.698667 12.458667 31.004444 0.682667 0.796444 1.137778 1.820444 1.877333 2.616889 1.251556 1.365333 2.958222 1.991111 4.380445 3.128889 8.305778 6.997333 18.773333 10.979556 29.639111 11.207111l0.568889-0.113778 0.568889 0.113778h868.124444l0.568889-0.113778 0.568889 0.113778a46.990222 46.990222 0 0 0 29.582222-11.264c1.365333-1.137778 3.185778-1.820444 4.380445-3.128889 0.796444-0.796444 1.251556-1.820444 1.877333-2.616889a46.648889 46.648889 0 0 0 12.401778-31.004444l-0.170667-0.625778 0.170667-0.796444L995.555556 277.447111zM385.706667 95.971556h252.586666v193.422222H385.706667v-193.422222z m355.384889 832.056888H282.965333V676.977778l62.748445-62.236445h332.572444l62.805334 62.407111v250.88z m157.752888 0h-61.041777v-267.264c0-0.682667-0.341333-1.308444-0.398223-1.820444a48.696889 48.696889 0 0 0-14.506666-36.408889l-89.827556-88.974222a49.891556 49.891556 0 0 0-36.295111-14.449778c-0.568889 0-1.137778-0.341333-1.536-0.341333H329.386667c-0.682667 0-1.251556 0.341333-1.877334 0.398222a49.834667 49.834667 0 0 0-36.750222 14.336l-89.770667 89.031111a49.720889 49.720889 0 0 0-14.449777 36.579556c0 0.568889-0.341333 1.024-0.341334 1.592889v267.264H125.155556V96.028444h163.84v240.071112l0.170666 0.682666-0.113778 0.568889a46.08 46.08 0 0 0 12.060445 30.321778c0.853333 1.137778 1.365333 2.446222 2.389333 3.413333 1.024 1.024 2.275556 1.479111 3.413334 2.332445a47.217778 47.217778 0 0 0 30.549333 11.946666l0.739555-0.113777 0.568889 0.170666h346.453334l0.739555-0.170666 0.682667 0.170666a46.933333 46.933333 0 0 0 30.549333-11.946666c1.137778-0.910222 2.389333-1.365333 3.413334-2.389334 1.137778-0.967111 1.536-2.389333 2.389333-3.413333a46.478222 46.478222 0 0 0 12.117333-30.264889l-0.113778-0.625778 0.113778-0.739555V122.481778L898.844444 285.127111v642.844445z" p-id="1772"></path></svg>